<svg width="64" height="64" viewBox="0 0 64 64" fill="none" xmlns="http://www.w3.org/2000/svg">
<g clip-path="url(#clip0_1534_5325)">
<path d="M17.2422 0C17.2422 1.50713 17.2422 3.01426 17.221 4.52139C17.221 5.13698 17.221 5.13698 16.6052 5.13698C14.3968 5.13698 12.1672 5.13698 9.95885 5.13698C7.24087 5.13698 5.11744 7.2597 5.11744 9.97678C5.11744 12.2269 5.11744 14.4557 5.11744 16.7058C5.11744 17.1304 5.01127 17.2577 4.58659 17.2365C3.2276 17.2153 1.84737 17.2365 0.48838 17.2365C0.148632 17.2365 -7.99261e-06 17.1516 -7.99261e-06 16.7695C-7.99261e-06 14.4133 -0.0637107 12.057 -7.99261e-06 9.70083C0.212334 4.64876 3.90709 0.891542 8.36628 0.212272C8.7485 0.14859 9.10948 0.0849088 9.4917 0C12.0823 0 14.6729 0 17.2634 0H17.2422Z" fill="#B4B4B4"/>
<path d="M43.424 0.127319C47.9044 0.127319 52.4061 0.127319 56.8865 0.127319C60.2203 0.127319 63.3629 2.88686 63.8089 6.21953C63.8726 6.62284 63.8938 7.02616 63.8938 7.42948C63.8938 16.3024 63.8938 25.1754 63.8938 34.0484C63.8938 34.4588 63.6885 34.664 63.278 34.664C59.1161 34.664 54.9542 34.7701 50.8135 34.6427C42.5109 34.3668 36.2043 30.5883 32 23.4136C30.641 21.0998 29.8553 18.595 29.4731 15.9416C29.3457 15.1137 29.282 14.2859 29.282 13.458C29.282 9.19133 29.282 4.94589 29.282 0.679226C29.282 0.254682 29.3882 0.127319 29.8341 0.127319C34.357 0.127319 38.9011 0.127319 43.424 0.127319ZM38.9648 23.9442C38.9648 26.2368 40.8122 28.1048 43.1055 28.0835C45.2926 28.0623 47.2037 26.3854 47.2249 23.923C47.2461 21.6729 45.3351 19.8049 43.1055 19.8049C40.8122 19.8049 38.9648 21.6517 38.9648 23.9442Z" fill="#B4B4B4"/>
<path d="M31.7664 34.6428C33.3378 34.6428 34.9303 34.6428 36.5017 34.6428C37.797 34.6428 38.7525 35.5343 38.7525 36.8504C38.7525 40.0345 38.7525 43.1973 38.7525 46.3814C38.7525 47.74 37.797 48.6315 36.438 48.6315C35.5674 48.6315 34.6755 48.6527 33.8049 48.6315C33.4015 48.6315 33.2953 48.7589 33.3165 49.1409C33.3378 50.0113 33.3165 50.8603 33.3165 51.7307C33.3165 52.7496 32.637 53.4713 31.724 53.4713C30.8746 53.4713 30.2163 52.8345 30.1951 51.9854C30.1951 51.0726 30.1951 50.1811 30.1951 49.2683C30.1951 48.8438 29.9757 48.6315 29.5368 48.6315C28.6875 48.6315 27.8381 48.6315 26.9887 48.6315C25.651 48.6527 24.7167 47.5914 24.7379 46.3814C24.7804 43.1973 24.8016 40.0345 24.7379 36.8504C24.7167 35.5555 25.8846 34.5579 27.01 34.6215C28.5813 34.6852 30.1739 34.6215 31.7452 34.6215L31.7664 34.6428Z" fill="#B4B4B4"/>
<path d="M5.11746 50.8815C5.11746 52.0066 5.11746 53.1316 5.11746 54.2567C5.11746 56.719 7.28335 58.8842 9.74652 58.8842C12.0611 58.8842 14.3756 58.8842 16.6901 58.8842C17.0723 58.8842 17.221 58.9903 17.221 59.3936C17.1997 60.7522 17.1997 62.1319 17.221 63.4905C17.221 63.8938 17.0936 63.9999 16.6901 63.9999C14.3544 63.9999 12.0186 64.0424 9.70405 63.9999C4.77771 63.8726 0.913078 60.264 0.191114 55.7426C0.084943 55.0421 0.0424745 54.3203 0.0212402 53.5986C0.0212402 51.4971 0.0212402 49.3956 0.0212402 47.2941C0.0212402 46.912 0.148646 46.8059 0.509628 46.8059C1.88985 46.8059 3.27008 46.8059 4.6503 46.8059C5.01129 46.8059 5.11746 46.912 5.11746 47.2729C5.11746 48.4829 5.11746 49.6928 5.11746 50.9028V50.8815Z" fill="#B4B4B4"/>
<path d="M58.8826 50.8392C58.8826 49.6505 58.8826 48.483 58.8826 47.2942C58.8826 46.9334 58.9675 46.7848 59.371 46.7848C60.7725 46.806 62.1527 46.7848 63.5541 46.7848C63.8939 46.7848 64.0001 46.8909 64.0001 47.2306C64.0001 49.5656 64.0425 51.9005 64.0001 54.2143C63.8727 59.2876 60.1991 63.066 55.7612 63.7878C55.1454 63.8939 54.5084 63.9364 53.8713 63.9576C51.6842 63.9576 49.4971 63.9576 47.3099 63.9576C46.9065 63.9576 46.7791 63.8515 46.8003 63.4481C46.8216 62.0896 46.8216 60.7523 46.8003 59.3937C46.8003 58.9904 46.9065 58.8418 47.3312 58.8418C49.6032 58.8418 51.8753 58.8418 54.1474 58.8418C56.7804 58.8418 58.9038 56.7191 58.9038 54.0657C58.9038 52.9831 58.9038 51.8793 58.9038 50.7967L58.8826 50.8392Z" fill="#B4B4B4"/>
<path d="M22.0836 22.2886C21.9562 22.5008 21.85 22.6282 21.7863 22.7556C20.852 24.3901 19.9177 26.0245 18.9621 27.6378C18.5375 28.3808 17.7518 28.7841 17.0298 28.6567C16.1592 28.5081 15.5434 27.935 15.4373 27.0222C15.3948 26.6614 15.4585 26.2368 15.6496 25.9184C16.8175 23.8381 17.9641 21.7579 19.217 19.7201C20.5759 17.5337 23.7611 17.6186 25.0776 19.8474C26.2455 21.8216 27.3709 23.8169 28.5176 25.8123C29.0484 26.7463 28.7511 27.8501 27.8593 28.402C26.9675 28.9327 25.8633 28.6567 25.3112 27.744C24.3344 26.1095 23.4001 24.475 22.4658 22.8192C22.3809 22.6707 22.2747 22.5008 22.1048 22.2673L22.0836 22.2886Z" fill="#B4B4B4"/>
</g>
<defs>
<clipPath id="clip0_1534_5325">
<rect width="64" height="64" fill="white"/>
</clipPath>
</defs>
</svg>
