<svg width="19" height="20" viewBox="0 0 19 20" fill="none" xmlns="http://www.w3.org/2000/svg">
<g clip-path="url(#clip0_3812_4081)">
<path d="M9.88913 9.10003V11.8334H16.2578C16.0622 13.3672 15.5651 14.4887 14.8058 15.2772C13.8741 16.2329 12.4222 17.2778 9.88777 17.2778C5.96662 17.2778 2.90114 14.0332 2.90114 10.0111C2.90114 5.98913 5.96662 2.7445 9.88777 2.7445C11.9998 2.7445 13.5495 3.59989 14.6863 4.70047L16.5607 2.77793C14.9811 1.1995 12.8582 0 9.88913 0C4.51741 0 0 4.48872 0 10C0 15.5113 4.51741 20 9.88913 20C12.7916 20 14.9797 19.022 16.691 17.1998C18.4459 15.3998 18.9986 12.8559 18.9986 10.8108C18.9986 10.1769 18.9552 9.58902 18.8574 9.10003H9.88777H9.88913Z" fill="white"/>
</g>
<defs>
<clipPath id="clip0_3812_4081">
<rect width="19" height="20" fill="white"/>
</clipPath>
</defs>
</svg>
