<svg width="32" height="32" viewBox="0 0 32 32" fill="none" xmlns="http://www.w3.org/2000/svg">
<path fill-rule="evenodd" clip-rule="evenodd" d="M4 7.33103C4 5.49135 5.44164 4 7.22 4H9.6V5.44828H7.22C6.21484 5.44828 5.4 6.29122 5.4 7.33103V9.7931H4V7.33103Z" fill="#1C1C1C"/>
<path fill-rule="evenodd" clip-rule="evenodd" d="M24.78 4C26.5584 4 28 5.49135 28 7.33103L28 9.7931L26.6 9.7931L26.6 7.33103C26.6 6.29122 25.7852 5.44828 24.78 5.44828L22.4 5.44828L22.4 4L24.78 4Z" fill="#1C1C1C"/>
<path fill-rule="evenodd" clip-rule="evenodd" d="M28 24.669C28 26.5086 26.5584 28 24.78 28L22.4 28L22.4 26.5517L24.78 26.5517C25.7852 26.5517 26.6 25.7088 26.6 24.669L26.6 22.2069L28 22.2069L28 24.669Z" fill="#1C1C1C"/>
<path fill-rule="evenodd" clip-rule="evenodd" d="M7.22 28C5.44164 28 4 26.5086 4 24.669L4 22.2069L5.4 22.2069L5.4 24.669C5.4 25.7088 6.21484 26.5517 7.22 26.5517L9.6 26.5517L9.6 28L7.22 28Z" fill="#1C1C1C"/>
<path d="M21.9205 10.1493C21.5784 9.78493 21.1722 9.4959 20.7252 9.2987C20.2782 9.1015 19.799 9 19.3151 9C18.8312 9 18.3521 9.1015 17.905 9.2987C17.458 9.4959 17.0518 9.78493 16.7098 10.1493L15.9998 10.9051L15.2899 10.1493C14.5989 9.41366 13.6617 9.00038 12.6845 9.00038C11.7073 9.00038 10.7702 9.41366 10.0792 10.1493C9.38819 10.8849 9 11.8827 9 12.923C9 13.9634 9.38819 14.9611 10.0792 15.6967L10.7891 16.4526L15.9998 22L21.2105 16.4526L21.9205 15.6967C22.2627 15.3325 22.5342 14.9001 22.7194 14.4242C22.9047 13.9483 23 13.4382 23 12.923C23 12.4079 22.9047 11.8977 22.7194 11.4218C22.5342 10.9459 22.2627 10.5135 21.9205 10.1493Z" fill="#1C1C1C"/>
</svg>
