<svg width="46" height="41" viewBox="0 0 46 41" fill="none" xmlns="http://www.w3.org/2000/svg">
<path d="M41.6072 4.44788C40.5321 3.3548 39.2556 2.4877 37.8506 1.8961C36.4456 1.3045 34.9397 1 33.4189 1C31.8981 1 30.3922 1.3045 28.9873 1.8961C27.5823 2.4877 26.3058 3.3548 25.2307 4.44788L22.9994 6.71535L20.7682 4.44788C18.5965 2.24097 15.6511 1.00114 12.5799 1.00114C9.50875 1.00114 6.56334 2.24097 4.39169 4.44788C2.22003 6.65479 1 9.648 1 12.769C1 15.8901 2.22003 18.8833 4.39169 21.0902L6.62293 23.3577L22.9994 40L39.3759 23.3577L41.6072 21.0902C42.6828 19.9976 43.5361 18.7004 44.1182 17.2726C44.7004 15.8449 45 14.3145 45 12.769C45 11.2236 44.7004 9.69322 44.1182 8.26545C43.5361 6.83767 42.6828 5.54045 41.6072 4.44788Z" fill="url(#paint0_linear_3812_2990)" stroke="#1C1C1C" stroke-linecap="round" stroke-linejoin="round"/>
<defs>
<linearGradient id="paint0_linear_3812_2990" x1="23" y1="1" x2="23" y2="40" gradientUnits="userSpaceOnUse">
<stop stop-color="#FF720D"/>
<stop offset="1" stop-color="#FF720D" stop-opacity="0"/>
</linearGradient>
</defs>
</svg>
